<?xml version="1.0" encoding="UTF-8" standalone="no"?>
<!-- Generator: Adobe Illustrator 24.1.0, SVG Export Plug-In . SVG Version: 6.00 Build 0)  -->

<svg
   xmlns:dc="http://purl.org/dc/elements/1.1/"
   xmlns:cc="http://creativecommons.org/ns#"
   xmlns:rdf="http://www.w3.org/1999/02/22-rdf-syntax-ns#"
   xmlns:svg="http://www.w3.org/2000/svg"
   xmlns="http://www.w3.org/2000/svg"
   xmlns:sodipodi="http://sodipodi.sourceforge.net/DTD/sodipodi-0.dtd"
   xmlns:inkscape="http://www.inkscape.org/namespaces/inkscape"
   version="1.1"
   id="Calque_1"
   x="0px"
   y="0px"
   viewBox="0 0 334.99998 70.731912"
   xml:space="preserve"
   sodipodi:docname="pas.jpg"
   width="335"
   height="70.731911"
   inkscape:version="0.92.4 (5da689c313, 2019-01-14)"><metadata
   id="metadata69"><rdf:RDF><cc:Work
       rdf:about=""><dc:format>image/svg+xml</dc:format><dc:type
         rdf:resource="http://purl.org/dc/dcmitype/StillImage" /><dc:title></dc:title></cc:Work></rdf:RDF></metadata><defs
   id="defs67" /><sodipodi:namedview
   pagecolor="#ffffff"
   bordercolor="#666666"
   borderopacity="1"
   objecttolerance="10"
   gridtolerance="10"
   guidetolerance="10"
   inkscape:pageopacity="0"
   inkscape:pageshadow="2"
   inkscape:window-width="2560"
   inkscape:window-height="1377"
   id="namedview65"
   showgrid="false"
   fit-margin-top="0"
   fit-margin-left="0"
   fit-margin-right="0"
   fit-margin-bottom="0"
   inkscape:zoom="0.86152039"
   inkscape:cx="576.61273"
   inkscape:cy="-10.434525"
   inkscape:window-x="-8"
   inkscape:window-y="-8"
   inkscape:window-maximized="1"
   inkscape:current-layer="Calque_1" />
<style
   type="text/css"
   id="style2">
	.st0{fill:#231F20;}
	.st1{fill:#003657;}
</style>





























<g
   id="g433"
   transform="matrix(0.29857287,0,0,0.29857287,-14.837826,-24.482975)"><polygon
     id="polygon4"
     points="1082,146.1 1130.5,195.7 1171.7,195.7 1105.8,129.5 1168.4,85.1 1123.9,85.1 1058.2,131.6 1058.2,85.1 1027.2,85.1 1027.2,195.7 1058.2,195.7 1058.2,162.9 "
     class="st0"
     style="fill:#231f20" /><polygon
     id="polygon6"
     points="370,195.7 481.9,195.7 481.9,170.3 401,170.3 401,85.1 370,85.1 "
     class="st0"
     style="fill:#231f20" /><polygon
     id="polygon8"
     points="461.5,85.1 526.8,195.7 553.8,195.7 619.2,85.1 584.3,85.1 540.3,159.6 496.4,85.1 "
     class="st0"
     style="fill:#231f20" /><polygon
     id="polygon10"
     points="865.9,85.1 734.6,85.1 734.6,110.6 784.8,110.6 784.8,195.7 815.7,195.7 815.7,110.6 865.9,110.6 "
     class="st0"
     style="fill:#231f20" /><path
     id="path12"
     d="M 190.2,107 C 166.2,83.7 141,82 125.4,82 c -12.3,0 -21,1.3 -31.8,4.8 -8.9,2.9 -17.3,7.4 -24.6,13.3 -6.1,4.9 -11,11 -14.4,18 -3.3,6.9 -5,14.5 -4.9,22.2 0,16.3 6.5,29.9 19.2,40.4 7.3,5.9 15.6,10.4 24.5,13.3 9.8,3.2 20.1,4.8 30.5,4.7 10.8,0.1 21.5,-1.5 31.8,-4.7 9.1,-2.8 17.5,-7.3 25,-13.2 13.2,-10.8 21,-24.1 20.8,-50.1 h -88 c 0.1,14 11.4,25.3 25.4,25.4 h 25.6 c -1.2,1.5 -2.5,2.9 -3.9,4.2 -2.9,2.6 -6.2,4.9 -9.7,6.6 -4,2 -8.1,3.4 -12.4,4.4 -4.8,1 -9.7,1.6 -14.6,1.5 -5.5,0 -11,-0.7 -16.3,-2.2 -4.7,-1.3 -9.1,-3.3 -13.2,-5.9 -9.5,-6.3 -14.2,-14.3 -14.2,-24.5 -0.1,-4.4 1,-8.8 3,-12.7 2.2,-4 5.2,-7.5 8.8,-10.2 4.1,-3.1 8.8,-5.5 13.8,-7 5.8,-1.8 11.9,-2.6 18,-2.6 6.6,0 22.6,-0.3 37.7,13.9 z"
     class="st0"
     inkscape:connector-curvature="0"
     style="fill:#231f20" /><path
     id="path14"
     d="m 952.7,153.2 h 30.6 v -25.4 h -56 c 0,14 11.4,25.4 25.4,25.4"
     class="st0"
     inkscape:connector-curvature="0"
     style="fill:#231f20" /><polygon
     id="polygon16"
     points="1004.9,85.1 888.1,85.1 888.1,195.7 1004.9,195.7 1004.9,170.3 919.1,170.3 919.1,110.6 1004.9,110.6 "
     class="st0"
     style="fill:#231f20" /><path
     id="path18"
     d="m 657.4,85.2 -58.8,110.6 h 32 l 44,-82.9 22.3,41.6 h -37.6 c 0,14 11.4,25.4 25.4,25.4 0,0 0,0 0,0 h 25.8 l 8.4,15.8 h 32 L 692.2,85.2 Z"
     class="st0"
     inkscape:connector-curvature="0"
     style="fill:#231f20" /><path
     id="path20"
     d="m 260.7,85.2 -58.8,110.6 h 31.9 l 44,-82.9 22.3,41.6 h -37.6 c 0,14 11.4,25.4 25.4,25.4 h 25.8 l 8.4,15.8 h 32 L 295.5,85.2 Z"
     class="st0"
     inkscape:connector-curvature="0"
     style="fill:#231f20" /><path
     id="path22"
     d="m 220,287.4 11.3,-1.6 c 0.4,6.3 2.4,9.2 7.3,9.2 5.5,0 7.3,-2.5 7.3,-9.2 v -34.9 h 12.9 v 34.6 c 0,13.2 -6.2,19.7 -19.4,19.7 -13,0 -18.6,-7.3 -19.4,-17.8"
     class="st1"
     inkscape:connector-curvature="0"
     style="fill:#003657" /><path
     id="path24"
     d="M 292.7,285.6 V 285 c 0,-7 -2.9,-10.7 -8,-10.7 -5.1,0 -7.9,3.8 -7.9,10.7 v 0.6 c 0,6.9 2.8,10.5 7.9,10.5 5.1,0 8,-3.7 8,-10.5 m -28.4,-0.3 c 0,-11.9 8,-19.8 20.4,-19.8 12.4,0 20.3,7.9 20.3,19.8 0,11.7 -8.1,19.6 -20.6,19.6 -12.4,0 -20.1,-7.8 -20.1,-19.6"
     class="st1"
     inkscape:connector-curvature="0"
     style="fill:#003657" /><path
     id="path26"
     d="m 323,272.6 c 2,-4.6 5.7,-7.1 11.1,-7.1 8.3,0 13.2,5.5 13.2,15.9 v 22.8 h -12.2 v -22 c 0,-4.6 -1.7,-7 -5.8,-7 -4.1,0 -6.4,3.2 -6.4,9.1 v 19.9 h -12 v -53.8 h 12 v 22.2 z"
     class="st1"
     inkscape:connector-curvature="0"
     style="fill:#003657" /><path
     id="path28"
     d="m 366.1,272.3 c 2,-4.4 5.8,-7 11.2,-7 8.3,0 13.2,5.6 13.2,16 v 22.8 h -12.2 v -22 c 0,-4.6 -1.7,-7 -5.8,-7 -3.9,0 -6.4,3.2 -6.4,9.1 v 19.9 H 354 v -37.8 h 12.1 z"
     class="st1"
     inkscape:connector-curvature="0"
     style="fill:#003657" /><path
     id="path30"
     d="m 413.1,277.6 c 0,-16.7 10.4,-27.8 26,-27.8 13.2,0 22,7.1 24.1,20.3 h -12 c -1.4,-6.6 -5.6,-9.7 -11.9,-9.7 -8.2,0 -12.8,6 -12.8,16.5 v 1.1 c 0,10.6 4.5,16.5 12.6,16.5 6.7,0 11.1,-3 12.3,-10.8 h 12.2 c -1.6,14.8 -11.3,21.5 -24.8,21.5 -15.5,0 -25.7,-11.1 -25.7,-27.6"
     class="st1"
     inkscape:connector-curvature="0"
     style="fill:#003657" /><path
     id="path32"
     d="M 495.6,285.6 V 285 c 0,-7 -2.9,-10.7 -8,-10.7 -5.1,0 -7.9,3.8 -7.9,10.7 v 0.6 c 0,6.9 2.8,10.5 7.9,10.5 5.1,0 8,-3.7 8,-10.5 m -28.3,-0.3 c 0,-11.9 8,-19.8 20.4,-19.8 12.4,0 20.3,7.9 20.3,19.8 0,11.7 -8.1,19.6 -20.6,19.6 -12.5,0 -20.2,-7.8 -20.1,-19.6"
     class="st1"
     inkscape:connector-curvature="0"
     style="fill:#003657" /><path
     id="path34"
     d="m 512.3,285.1 c 0,-11.7 7.9,-19.6 20,-19.6 10.2,0 15.6,4.8 18.1,12.5 l -11.2,3 c -0.9,-3.6 -2.6,-6.4 -6.8,-6.4 -4.9,0 -7.8,4 -7.8,10.4 v 0.5 c 0,6.5 2.7,10.4 7.5,10.4 4.6,0 6.6,-2.6 7.4,-6.8 l 11.2,2.7 c -2.3,8.1 -7.9,13.2 -18.6,13.2 -12.4,-0.1 -19.8,-7.8 -19.8,-19.9"
     class="st1"
     inkscape:connector-curvature="0"
     style="fill:#003657" /><polygon
     id="polygon36"
     points="567.7,294.2 567.7,304.1 555.7,304.1 555.7,250.3 567.7,250.3 567.7,282.1 579.9,266.3 593.2,266.3 580.4,280.3 593.8,304.1 580.9,304.1 572.3,288.6 "
     class="st1"
     style="fill:#003657" /><path
     id="path38"
     d="m 605.2,281.4 h 15.2 c -0.3,-5.1 -2.7,-7.5 -7.4,-7.5 -4.2,0 -7.2,2.7 -7.8,7.5 m -11.7,4 c 0,-11.9 7.9,-20 19.7,-20 12.1,0 19.2,7.5 19.2,20 v 3 h -27.2 c 0.6,5.1 3.9,7.8 8.7,7.8 4.9,0 7.3,-2.4 8.4,-5.5 l 9.8,3 c -2.6,6.9 -8.2,11.2 -18.8,11.2 -12.3,0 -19.8,-7.5 -19.8,-19.5"
     class="st1"
     inkscape:connector-curvature="0"
     style="fill:#003657" /><path
     id="path40"
     d="m 650.2,272.8 c 1.2,-4.2 4.2,-6.8 10.7,-6.8 h 0.9 v 11 h -4.5 c -5.6,0 -7,2.5 -7,8.2 v 18.9 H 638 v -37.8 h 12.3 v 6.5 z"
     class="st1"
     inkscape:connector-curvature="0"
     style="fill:#003657" /><path
     id="path42"
     d="m 679.6,304.1 h -12.2 v -37.8 h 12.2 z m 0.2,-42.7 H 667.3 V 251 h 12.5 z"
     class="st1"
     inkscape:connector-curvature="0"
     style="fill:#003657" /><rect
     id="rect44"
     height="53.799999"
     width="12.2"
     class="st1"
     y="250.3"
     x="687.29999"
     style="fill:#003657" /><rect
     id="rect46"
     height="53.799999"
     width="12.2"
     class="st1"
     y="250.3"
     x="707.20001"
     style="fill:#003657" /><path
     id="path48"
     d="m 192,290.2 v -7.7 c -2.3,2 -6.8,2.7 -11.2,3.8 -5,1.2 -9.3,2.8 -9.3,7.8 0,3.9 2.7,6.6 7.8,6.6 6.3,-0.1 11.3,-3.4 12.7,-10.5 m -26.3,4 c 0,-8.2 6.6,-10.3 14.3,-11.9 5.9,-1.4 10.6,-1.9 11.9,-4.4 v -0.5 c 0,-4.7 -2.8,-7.3 -9.3,-7.3 -6.1,0 -10.2,2.4 -10.3,7.9 v 0.4 h -5.7 c 0.2,-8.5 6.7,-12.9 16,-12.9 9.5,0 14.7,4.3 14.7,13.2 v 20.8 l 0.1,4.5 h -5.5 v -6.6 c -3,5.5 -8.2,7.5 -13.5,7.5 -7.9,0.1 -12.7,-4.3 -12.7,-10.7"
     class="st0"
     inkscape:connector-curvature="0"
     style="fill:#231f20" /><path
     id="path50"
     d="m 742.5,285.2 c 0,-11.6 7.5,-19.6 18.6,-19.6 9.1,0 14.9,5.1 17,12.8 l -5.5,1.5 c -1.3,-5.8 -5,-9.6 -11.6,-9.6 -7.9,0 -12.9,5.9 -12.9,14.8 v 0.3 c 0,8.7 4.8,14.7 12.8,14.7 6.9,0 10.6,-3.8 11.9,-9.7 l 5.5,1.4 c -2.2,7.9 -7.9,13 -17.3,13 -11.2,0 -18.5,-8.1 -18.5,-19.6"
     class="st0"
     inkscape:connector-curvature="0"
     style="fill:#231f20" /><path
     id="path52"
     d="m 814.2,285.4 v -0.3 c 0,-9 -5,-14.9 -13,-14.9 -8,0 -13.1,5.8 -13.1,14.9 v 0.3 c 0,9 5,14.7 13,14.7 8,0 13.1,-5.8 13.1,-14.7 m -31.7,-0.2 c 0,-11.6 7.6,-19.6 18.8,-19.6 11.2,0 18.6,8 18.6,19.7 0,11.7 -7.6,19.6 -18.8,19.6 -11.2,0 -18.6,-8 -18.6,-19.7"
     class="st0"
     inkscape:connector-curvature="0"
     style="fill:#231f20" /><path
     id="path54"
     d="m 833,274 c 1.9,-5.3 5.7,-8.5 11.3,-8.5 5.2,0 9.1,2.8 10.7,8.8 1.9,-5.5 6,-8.8 12.1,-8.8 7.2,0 11.7,5.1 11.7,14 v 24.6 h -5.7 v -24.3 c 0,-6.3 -2.6,-9.4 -7.8,-9.4 -5.9,0 -9.4,5.2 -9.4,13.6 v 20 h -5.6 v -23.4 c 0,-7.2 -2.8,-10.3 -7.8,-10.3 -5.8,0 -9.4,5 -9.4,13.5 V 304 h -5.6 v -37.9 h 5.5 z"
     class="st0"
     inkscape:connector-curvature="0"
     style="fill:#231f20" /><path
     id="path56"
     d="m 918.4,285.4 v -0.6 c 0,-9.1 -4.7,-14.5 -12.5,-14.5 -7.8,0 -12.3,5.9 -12.3,14.7 v 0.6 c 0,8.6 4.6,14.5 12.3,14.5 7.7,0 12.5,-5.6 12.5,-14.7 m -24.5,12.1 v 21.3 h -5.5 v -52.6 h 5.5 v 6.8 c 2.6,-4.8 7.7,-7.8 13.2,-7.6 10.2,0 17.3,7.5 17.3,19.6 v 0.1 c 0,12 -7.1,19.8 -17.3,19.8 -5.4,0.1 -10.5,-2.7 -13.2,-7.4"
     class="st0"
     inkscape:connector-curvature="0"
     style="fill:#231f20" /><path
     id="path58"
     d="m 955.7,290.2 v -7.7 c -2.2,2 -6.8,2.7 -11.2,3.8 -5,1.2 -9.3,2.8 -9.3,7.8 0,3.9 2.7,6.6 7.8,6.6 6.3,-0.1 11.3,-3.4 12.7,-10.5 m -26.3,4 c 0,-8.2 6.6,-10.3 14.3,-11.9 5.9,-1.4 10.6,-1.9 11.9,-4.4 v -0.5 c 0,-4.7 -2.8,-7.3 -9.3,-7.3 -6.1,0 -10.2,2.4 -10.3,7.9 v 0.4 h -5.7 c 0.2,-8.5 6.7,-12.9 16,-12.9 9.5,0 14.7,4.3 14.7,13.2 v 20.8 l 0.1,4.5 h -5.5 v -6.6 c -3,5.5 -8.2,7.5 -13.5,7.5 -7.9,0.1 -12.7,-4.3 -12.7,-10.7"
     class="st0"
     inkscape:connector-curvature="0"
     style="fill:#231f20" /><path
     id="path60"
     d="m 976.2,275.2 c 2,-6.2 6.3,-9.7 12.8,-9.7 8,0 13.1,5.4 13.1,15 v 23.6 h -5.6 v -23.3 c 0,-6.8 -3.2,-10.3 -8.9,-10.3 -7.5,0 -11.3,6.3 -11.3,17.3 v 16.3 h -5.6 v -37.8 h 5.5 z"
     class="st0"
     inkscape:connector-curvature="0"
     style="fill:#231f20" /><path
     id="path62"
     d="m 1010.6,314 c 5.9,0 7.1,-1.7 10.7,-11.3 l -15.1,-36.5 h 5.9 l 12,30.1 10.6,-30.1 h 5.8 l -14.3,39.1 c -3.8,9.9 -6.3,13.6 -15.2,13.6 h -3.9 v -5 z"
     class="st0"
     inkscape:connector-curvature="0"
     style="fill:#231f20" /></g>
</svg>